<?xml version="1.0" standalone="no"?>
<!DOCTYPE svg PUBLIC "-//W3C//DTD SVG 20010904//EN"
 "http://www.w3.org/TR/2001/REC-SVG-20010904/DTD/svg10.dtd">
<svg version="1.0" xmlns="http://www.w3.org/2000/svg"
 width="496.000000pt" height="496.000000pt" viewBox="0 0 496.000000 496.000000"
 preserveAspectRatio="xMidYMid meet">
<metadata>
Created by potrace 1.11, written by Peter Selinger 2001-2013
</metadata>
<g transform="translate(0.000000,496.000000) scale(0.100000,-0.100000)"
fill="#000000" stroke="none">
<path d="M1907 4952 c-15 -3 -17 -19 -17 -128 0 -111 2 -124 18 -125 9 0 141
-2 292 -4 151 -2 505 -6 785 -10 281 -4 635 -8 787 -9 240 -1 278 -3 278 -16
1 -8 1 -576 1 -1261 l1 -1247 228 0 228 0 0 1399 -1 1399 -26 1 c-108 2 -2561
3 -2574 1z"/>
<path d="M464 2437 l1 -2432 1742 -3 1741 -2 0 465 c0 256 -3 466 -7 466 -12
3 -180 7 -551 14 -206 4 -456 8 -555 10 -382 8 -986 18 -1122 19 -136 1 -143
2 -144 21 0 11 -1 887 -1 1947 l0 1926 -553 1 -552 0 1 -2432z"/>
<path d="M2610 3940 c-179 -39 -326 -113 -450 -228 l-74 -68 30 -34 c16 -18
52 -58 80 -89 55 -61 110 -123 139 -158 l19 -22 57 53 c140 130 320 179 474
131 97 -31 152 -121 128 -208 -13 -45 -73 -111 -153 -168 -234 -166 -307 -262
-317 -419 -6 -90 8 -166 43 -235 51 -98 46 -96 199 -51 206 62 227 69 217 75
-20 12 -52 95 -52 134 0 87 42 140 229 282 140 106 197 160 243 232 88 135 98
342 25 493 -37 77 -140 171 -237 218 -47 23 -98 44 -115 48 -174 38 -352 43
-485 14z"/>
<path d="M2752 2229 c-89 -17 -177 -95 -203 -182 -16 -53 -12 -133 11 -185 91
-206 378 -216 480 -16 34 65 35 179 3 240 -55 104 -177 164 -291 143z"/>
</g>
</svg>
